<?xml version="1.0" standalone="no"?>
<!DOCTYPE svg PUBLIC "-//W3C//DTD SVG 20010904//EN"
 "http://www.w3.org/TR/2001/REC-SVG-20010904/DTD/svg10.dtd">
<svg version="1.0" xmlns="http://www.w3.org/2000/svg"
 width="512.000000pt" height="512.000000pt" viewBox="0 0 512.000000 512.000000"
 preserveAspectRatio="xMidYMid meet">
<metadata>
Created by potrace 1.14, written by Peter Selinger 2001-2017
</metadata>
<g transform="translate(0.000000,512.000000) scale(0.100000,-0.100000)"
fill="#000000" stroke="none">
<path d="M2200 4084 c-971 -86 -1541 -579 -1540 -1334 0 -82 5 -114 20 -148
l19 -43 -48 -47 c-57 -55 -81 -119 -81 -216 0 -80 13 -124 55 -186 l34 -51
-28 -40 c-60 -82 -66 -225 -14 -320 15 -28 37 -59 50 -69 20 -15 24 -34 37
-146 8 -71 22 -149 32 -174 51 -130 141 -215 273 -260 61 -20 71 -20 1564 -18
l1502 3 68 32 c126 60 220 177 246 306 6 29 13 90 17 137 l6 85 41 30 c22 17
52 51 65 77 50 98 37 258 -28 332 -34 38 -36 48 -14 67 8 7 25 31 37 53 18 34
22 58 22 141 0 114 -20 171 -80 224 l-33 29 25 48 c24 47 25 54 19 184 -19
455 -246 809 -670 1042 -217 120 -521 210 -836 248 -92 12 -669 22 -760 14z
m515 -114 c599 -33 1014 -173 1294 -436 219 -206 341 -487 341 -786 0 -97 -1
-100 -29 -129 l-29 -29 -1727 0 -1727 0 -29 29 c-29 29 -29 31 -29 144 0 444
224 802 628 1002 221 110 528 183 854 204 179 12 252 12 453 1z m-681 -1561
c3 -34 6 -102 6 -151 0 -142 -34 -188 -138 -188 -59 0 -78 17 -88 80 -26 166
-190 251 -331 170 -72 -41 -104 -98 -111 -193 -7 -112 -45 -157 -131 -157 -46
0 -88 30 -107 76 -15 36 -20 271 -8 372 l7 52 447 0 447 0 7 -61z m1833 -4
c-249 -306 -517 -616 -545 -630 -52 -26 -82 -13 -165 73 -99 102 -478 514
-529 575 l-40 47 666 0 666 0 -53 -65z m419 -927 c-11 -156 -70 -248 -196
-307 l-55 -26 -1475 0 c-1396 0 -1478 1 -1527 18 -57 20 -130 79 -162 131 -24
39 -47 127 -55 214 l-6 62 1742 0 1741 0 -7 -92z"/>
<path d="M2582 3684 c-41 -29 -19 -94 33 -94 23 0 55 32 55 55 0 38 -55 62
-88 39z"/>
<path d="M2056 3624 c-33 -32 -9 -86 39 -86 49 0 72 53 37 85 -23 21 -56 22
-76 1z"/>
<path d="M3076 3577 c-38 -28 -13 -97 34 -97 9 0 24 8 33 18 46 51 -13 119
-67 79z"/>
<path d="M2326 3227 c-38 -28 -13 -97 35 -97 44 0 65 63 31 93 -22 20 -42 21
-66 4z"/>
<path d="M1840 3211 c-16 -31 -12 -59 13 -75 50 -33 105 21 72 70 -20 30 -70
33 -85 5z"/>
<path d="M2884 3205 c-32 -50 22 -103 72 -70 43 28 24 95 -26 95 -20 0 -35 -8
-46 -25z"/>
</g>
</svg>
